<?xml version="1.0" encoding="UTF-8" standalone="no"?>
<svg width="8cm" height="4cm" viewBox="0 0 80 40" xmlns="http://www.w3.org/2000/svg" version="1.1">
    <rect width="80" height="40" fill="none" stroke="black" stroke-width="0.5" />

    <!-- drill holes -->
    <!-- top left -->
    <line x1="3" y1="5" x2="7" y2="5" stroke="black" stroke-width="0.1" />
    <line x1="5" y1="3" x2="5" y2="7" stroke="black" stroke-width="0.1" />
    <circle cx="5" cy="5" r="2" fill="none" stroke="black" stroke-width="0.1" />

    <!-- top right -->
    <line x1="73" y1="5" x2="77" y2="5" stroke="black" stroke-width="0.1" />
    <line x1="75" y1="3" x2="75" y2="7" stroke="black" stroke-width="0.1" />
    <circle cx="75" cy="5" r="2" fill="none" stroke="black" stroke-width="0.1" />

    <!-- bottom left -->
    <circle cx="5" cy="35" r="2" fill="none" stroke="black" stroke-width="0.1" />
    <line x1="3" y1="35" x2="7" y2="35" stroke="black" stroke-width="0.1" />
    <line x1="5" y1="33" x2="5" y2="37" stroke="black" stroke-width="0.1" />

    <!-- bottom right -->
    <circle cx="75" cy="35" r="2" fill="none" stroke="black" stroke-width="0.1" />
    <line x1="73" y1="35" x2="77" y2="35" stroke="black" stroke-width="0.1" />
    <line x1="75" y1="33" x2="75" y2="37" stroke="black" stroke-width="0.1" />
    <!-- end corner drill marks-->

    <!-- toggle switch drill marks -->
    <!-- first hole from the left -->
    <circle cx="15" cy="11" r="2" fill="none" stroke="black" stroke-width="0.1" />
    <line x1="13" y1="11" x2="17" y2="11" stroke="black" stroke-width="0.1" />
    <line x1="15" y1="9" x2="15" y2="13" stroke="black" stroke-width="0.1" />

    <!-- second from the left-->
    <circle cx="31.5" cy="11" r="2" fill="none" stroke="black" stroke-width="0.1" />
    <line x1="29.5" y1="11" x2="33.5" y2="11" stroke="black" stroke-width="0.1" />
    <line x1="31.5" y1="9" x2="31.5" y2="13" stroke="black" stroke-width="0.1" />

    <!-- third from the left-->
    <circle cx="47.5" cy="11" r="2" fill="none" stroke="black" stroke-width="0.1" />
    <line x1="45.5" y1="11" x2="49.5" y2="11" stroke="black" stroke-width="0.1" />
    <line x1="47.5" y1="9" x2="47.5" y2="13" stroke="black" stroke-width="0.1" />

    <!-- rightmost hole -->
    <circle cx="65" cy="11" r="2" fill="none" stroke="black" stroke-width="0.1" />
    <line x1="63" y1="11" x2="67" y2="11" stroke="black" stroke-width="0.1" />
    <line x1="65" y1="9" x2="65" y2="13" stroke="black" stroke-width="0.1" />

    <!-- button holes -->
    <rect x="8.5" y="20" width="13" height="13" fill="none" stroke="black" stroke-width="0.1" />
    <rect x="25" y="20" width="13" height="13" fill="none" stroke="black" stroke-width="0.1" />
    <rect x="41" y="20" width="13" height="13" fill="none" stroke="black" stroke-width="0.1" />
    <rect x="58.5" y="20" width="13" height="13" fill="none" stroke="black" stroke-width="0.1" />


</svg>